<svg xmlns="http://www.w3.org/2000/svg" xmlns:xlink="http://www.w3.org/1999/xlink" version="1.1" x="0px" y="0px" viewBox="0 0 100 125" style="enable-background:new 0 0 100 100;" xml:space="preserve"><g><path d="M44.8,34.7c-0.6,0.6-0.6,1.5,0,2.1s1.5,0.6,2.1,0c1.7-1.7,4.5-1.7,6.2,0c0.3,0.3,0.7,0.4,1.1,0.4s0.8-0.1,1.1-0.4   c0.6-0.6,0.6-1.5,0-2.1C52.4,31.8,47.6,31.8,44.8,34.7z"/><path d="M63.9,24.2c0,0.8,0.7,1.5,1.5,1.5c1.1,0,2,0.9,2,2c0,0.8-0.4,1.4-1.1,1.8c-0.7,0.4-1,1.3-0.7,2c0.3,0.5,0.8,0.8,1.3,0.8   c0.2,0,0.5-0.1,0.7-0.2c1.7-0.9,2.7-2.6,2.7-4.5c0-2.8-2.2-5-5-5C64.5,22.7,63.9,23.4,63.9,24.2z"/><path d="M48.2,20.6c0.8,0,1.5-0.7,1.5-1.5s-0.7-1.5-1.5-1.5c-0.9,0-1.7-0.8-1.7-1.7s0.8-1.7,1.7-1.7h0.4c2.5,0,4.6-2.1,4.6-4.6   c0-0.8-0.7-1.5-1.5-1.5s-1.5,0.7-1.5,1.5c0,0.9-0.7,1.6-1.6,1.6h-0.4c-2.6,0-4.7,2.1-4.7,4.7C43.5,18.5,45.6,20.6,48.2,20.6z"/><path d="M51.9,14.5c-0.8,0-1.5,0.7-1.5,1.5c0,2.5,2.1,4.6,4.6,4.6c0.8,0,1.5-0.7,1.5-1.5s-0.7-1.5-1.5-1.5c-0.9,0-1.6-0.7-1.6-1.6   C53.4,15.2,52.8,14.5,51.9,14.5z"/><path d="M60.8,17.5c0.9,0,1.6,0.7,1.6,1.6c0,0.8,0.7,1.5,1.5,1.5s1.5-0.7,1.5-1.5c0-2.5-2.1-4.6-4.6-4.6c-0.8,0-1.5,0.7-1.5,1.5   S60,17.5,60.8,17.5z"/><path d="M36.1,20.6c0.8,0,1.5-0.7,1.5-1.5c0-0.9,0.7-1.6,1.6-1.6c0.8,0,1.5-0.7,1.5-1.5s-0.7-1.5-1.5-1.5c-2.5,0-4.6,2.1-4.6,4.6   C34.6,19.9,35.2,20.6,36.1,20.6z"/><path d="M72.6,40.4c0-0.8-0.7-1.5-1.5-1.5s-1.5,0.7-1.5,1.5V46l-19.3,6.4l-19.7-8c0.4-1.5,1.8-2.6,3.4-2.6h5   c2.8,2.9,6.7,4.8,11.1,4.8c1,0,1.9-0.1,2.9-0.3c0.8-0.2,1.4-0.9,1.2-1.8s-0.9-1.4-1.8-1.2c-0.8,0.1-1.5,0.2-2.3,0.2   c-6.8,0-12.4-5.6-12.4-12.4v-7c0-0.8-0.7-1.5-1.5-1.5h-1.4c-2.8,0-5,2.2-5,5c0,2.8,2.2,5,5,5h0c0.2,2.2,0.9,4.3,2,6.2h-2.7   c-3.6,0-6.5,2.9-6.5,6.5v0c0,0,0,0,0,0v23.9c0,1.3,0.1,2.5,0.3,3.7c0,0,0,0,0,0C29.6,83.7,38.8,91.8,50,91.8   c4.9,0,9.4-1.6,13.1-4.2c0,0,0.1,0,0.1-0.1c3.8-2.8,6.8-6.8,8.3-11.4c0,0,0,0,0,0c0,0,0,0,0,0c0.7-2.2,1.1-4.4,1.1-6.8V40.4z    M32.6,27.7c0-1.1,0.9-2,1.9-2v4C33.5,29.7,32.6,28.8,32.6,27.7z M30.4,47.6l39.1,15.9v5.7c0,1.5-0.2,2.9-0.5,4.2L30.4,57.7V47.6z    M69.6,49.2v11.1l-15-6.1L69.6,49.2z M50,88.8c-8.7,0-16.1-5.7-18.6-13.6l27.7,11.4C56.4,88,53.3,88.8,50,88.8z M62.1,84.6   L30.6,71.7c-0.1-0.8-0.2-1.6-0.2-2.4v-8.4l37.8,15.5C66.9,79.6,64.8,82.5,62.1,84.6z"/><path d="M54.3,26.4c-0.7-0.4-1.6,0-2,0.7c-0.4,0.7,0,1.6,0.7,2l2.1,1c0.2,0.1,0.4,0.1,0.6,0.1c0.6,0,1.1-0.3,1.4-0.9   c0.4-0.7,0-1.6-0.7-2L54.3,26.4z"/><path d="M44.3,30.2c0.2,0,0.4,0,0.6-0.1l2.1-1c0.7-0.4,1.1-1.3,0.7-2c-0.4-0.7-1.3-1.1-2-0.7l-2.1,1c-0.7,0.4-1.1,1.3-0.7,2   C43.2,29.9,43.7,30.2,44.3,30.2z"/><path d="M61.5,44.9c2.8,0,5.1-2.3,5.1-5.1c0-1.3-0.6-2.4-1.3-3.6c-0.7-1.2-1.6-2.8-2.4-5.5l-1.4-4.4l-1.5,4.4   c-0.9,2.6-1.7,4.1-2.4,5.3c-0.7,1.3-1.3,2.4-1.3,3.8C56.4,42.6,58.7,44.9,61.5,44.9z M60.3,37.5c0.3-0.6,0.7-1.3,1.2-2.2   c0.5,1,0.9,1.8,1.3,2.5c0.6,1,0.9,1.5,0.9,2.1c0,1.2-1,2.1-2.1,2.1c-1.2,0-2.1-1-2.1-2.1C59.4,39.2,59.7,38.7,60.3,37.5z"/></g><text x="0" y="115" fill="#000000" font-size="5px" font-weight="bold" font-family="'Helvetica Neue', Helvetica, Arial-Unicode, Arial, Sans-serif">Created by Tomasz Pasternak</text><text x="0" y="120" fill="#000000" font-size="5px" font-weight="bold" font-family="'Helvetica Neue', Helvetica, Arial-Unicode, Arial, Sans-serif">from the Noun Project</text></svg>