<svg xmlns="http://www.w3.org/2000/svg" data-name="Layer 1" viewBox="0 0 100 125" x="0px" y="0px"><title>icons_animals_3</title><path d="M96.79,28.8,89,24.93a12.11,12.11,0,0,0-9-4.41c-5.39-.22-11.18,1.23-17,13.17-4.86,10-32.66,28.53-58.32,20.16a1,1,0,0,0-1.24.59C1.63,59.24,2,61.58,2.09,61.83a1,1,0,0,0,1,.79H5.71l-4,2.84a1,1,0,0,0-.42.93l.57,4.77A1,1,0,0,0,2.5,72a1,1,0,0,0,.34.06,1,1,0,0,0,.69-.28A35.16,35.16,0,0,1,28,63.53c-1.36,1.69-5.05,3-7.48,3.59a1,1,0,0,0,.18,2,106.45,106.45,0,0,0,22-1.9,16.12,16.12,0,0,0,6.6,2.92v0c.47,1.75,3.54,3.88,5.51,5.09-2.39,1.6-2.18,2.54-2.1,2.89.17.77.88,1.2,2.11,1.28s3.08.1,5,.1c3.74,0,7.76-.1,8-.1a1,1,0,0,0,.91-.68h4.67a1,1,0,0,0,.23-2c-4.89-1.16-9.73-5.34-12-7.51,6.61-1.47,16.75-6,21-19.78C87.62,33.32,96.51,30.69,96.6,30.66a1,1,0,0,0,.19-1.86ZM68.3,76.72H66.84c-4.76-2.58-9.66-5.55-10.16-6.39a1.74,1.74,0,0,1-.09-.41c.65,0,1.58-.09,2.71-.25A40.53,40.53,0,0,0,68.3,76.72ZM80.77,48.87C76.46,63,65.84,66.67,59.88,67.62a1,1,0,0,0-.71.1c-1,.13-1.77.18-2.37.21a14.42,14.42,0,0,1,.57-2,1,1,0,0,0-1.87-.71c-.15.38-1.4,3.81-.69,5.77.5,1.37,5.11,4.17,9.23,6.45-2.88,0-6.67.06-8.78-.05a14.88,14.88,0,0,1,2-1.32,1,1,0,0,0,0-1.75c-3.12-1.71-6-4-6.06-4.67a1,1,0,0,0-.9-1.51h-.2A10.19,10.19,0,0,1,45.5,66.6a62.13,62.13,0,0,0,14.32-5,1,1,0,1,0-.91-1.78C48.24,65.27,34.42,66.67,26.7,67c1.87-1,3.54-2.39,3.83-4.21a1,1,0,0,0-.89-1.15,36.89,36.89,0,0,0-26,7.44l-.28-2.34,6.1-4.31a1,1,0,0,0-.58-1.82H4A16,16,0,0,1,5,56c11.32,3.4,24.51,2.19,37.28-3.46,10.53-4.66,19.59-11.9,22.55-18,5-10.3,9.63-12.25,15.08-12a10,10,0,0,1,7.62,3.77,1,1,0,0,0,.38.33l6,3C90.77,31.4,84.62,36.27,80.77,48.87Z"/><text x="0" y="115" fill="#000000" font-size="5px" font-weight="bold" font-family="'Helvetica Neue', Helvetica, Arial-Unicode, Arial, Sans-serif">Created by Iconic</text><text x="0" y="120" fill="#000000" font-size="5px" font-weight="bold" font-family="'Helvetica Neue', Helvetica, Arial-Unicode, Arial, Sans-serif">from the Noun Project</text></svg>