<svg xmlns="http://www.w3.org/2000/svg" xmlns:xlink="http://www.w3.org/1999/xlink" version="1.1" x="0px" y="0px" viewBox="0 0 52 65" enable-background="new 0 0 52 52" xml:space="preserve"><g><path fill="none" stroke="#000000" stroke-width="2" stroke-miterlimit="10" d="M21.4632568,24.7380981   C22.4239502,25.4954834,24.092041,26,26,26s3.5760498-0.5045166,4.5367432-1.2619019"/><g><path fill="none" stroke="#000000" stroke-width="2" stroke-miterlimit="10" d="M15.6976423,17.5019379    c-0.6045799-2.7483273-1.6593571-5.558176-1.4096136-8.3296528c0.3605928-3.3370357,4.841732-6.1744204,7.7745438-6.1722841    c2.6249237,0,5.2499599,0,7.8748837,0c2.9330349-0.00177,7.1401005,2.8351266,7.5008335,6.1722841    c0.249752,2.7717419-1.1362381,8.3283081-1.1362381,8.3283081c1.015625-0.6945229,3.6169472,0.3090916,2.2577248,3.3604088    c-0.7347794,1.6494999-1.8287964,2.3069286-2.501091,2.6773968C34.2970161,28.5383987,30.1354332,31,26,31    s-8.2970181-2.4616013-10.0586853-7.4616013c-0.6722956-0.3704681-1.7663136-1.0278969-2.50109-2.6773968    c-1.1999397-2.6937408,0.6868048-3.7915878,1.844265-3.5340538    C15.4381351,17.3611355,15.6976423,17.5019379,15.6976423,17.5019379z"/><path fill="none" stroke="#000000" stroke-width="2" stroke-miterlimit="10" d="M20.5877705,29.4764442l-3.3230362,5.8562241    l-4.5977945,0.5579643C7.1584616,36.5227776,3,41.1857567,3,46.7303886V49h46v-2.2696304    c0-5.5446243-4.1584511-10.2075958-9.6669197-10.839756l-4.5978165-0.5579453l-3.3235054-5.8559532"/><path fill="none" stroke="#000000" stroke-width="2" stroke-miterlimit="10" d="M36.3023567,17.5019379    c0,0,0.9139175-8.8885393-7.2362423-7.4064741c-2.022543,0.3677893-4.1096859,0.3677893-6.1322289,0    c-8.1501589-1.4820652-7.2362432,7.4064741-7.2362432,7.4064741"/><line fill="none" stroke="#000000" stroke-width="2" stroke-miterlimit="10" x1="17.2647343" y1="35.3326683" x2="34.7352638" y2="35.3326683"/><line fill="none" stroke="#000000" stroke-width="2" stroke-miterlimit="10" x1="36.3020515" y1="17.5005932" x2="35.6716919" y2="20"/><line fill="none" stroke="#000000" stroke-width="2" stroke-miterlimit="10" x1="15.6971722" y1="17.5005932" x2="16.3275318" y2="20"/></g></g><text x="0" y="67" fill="#000000" font-size="5px" font-weight="bold" font-family="'Helvetica Neue', Helvetica, Arial-Unicode, Arial, Sans-serif">Created by DinosoftLab</text><text x="0" y="72" fill="#000000" font-size="5px" font-weight="bold" font-family="'Helvetica Neue', Helvetica, Arial-Unicode, Arial, Sans-serif">from the Noun Project</text></svg>