<svg xmlns="http://www.w3.org/2000/svg" xmlns:xlink="http://www.w3.org/1999/xlink" version="1.1" x="0px" y="0px" viewBox="0 0 100 125" style="enable-background:new 0 0 100 100;" xml:space="preserve"><g><path d="M55.995,23.211c-2.862-2.88-5.147-9.042-10.794-17.999c1.795-0.39,2.885,0.426,3.167,2.559   c0.143,1.084,3.712,8.709,6.71,11.691c0.717,0.479,2.306,1.938,3.69,3.617C57.671,23.035,56.749,23.098,55.995,23.211z    M48.968,22.42c1.397-0.095,3.75-0.034,6.027,0.892c-1.888-1.928-5.273-8.664-6.409-10.664c2.774,6.491,2.353,7.23,2.168,7.553   C50.276,21.037,49.643,21.718,48.968,22.42z M41.453,23.07c1.438-0.039,2.564,0.107,3.404,0.304   c0.894-0.378,1.839-0.648,2.837-0.81c0.176-0.188,1.882-1.959,2.346-2.771c0.067-0.138,0.265-1.16-2.578-7.673   c-1.415-3.24-2.932-6.345-3.132-6.753c-1.957,0.435-2.296,1.682-1.638,2.86c2.833,5.136,2.311,11.673,2.311,11.673   S42.811,21.025,41.453,23.07z M50,23.206c-5.645,0-9.292,3.249-11.637,8.156l5.859,2.522l-4.865,6.141l7.196,3.098l-5.14,6.488   l-6.653-2.864c-0.382,4.114-0.492,8.341-0.492,12.296c0,0.135,0,0.266,0.001,0.398l1.278-4.91   c4.211-1.055,9.354-1.738,14.122-1.738c8.107,0,14.54,1.682,14.785,1.748l1.275,4.898c0-0.133,0.001-0.262,0.001-0.396   c0-4.41-0.158-8.526-0.512-12.288l-6.634,2.855l-5.139-6.488l7.195-3.098l-4.864-6.141l5.868-2.525   C59.191,26.162,55.459,23.206,50,23.206z M13.161,49.152c3.576-22.406,21.563-25.523,26.17-25.955   c-5.935,0.396-23.12,1.801-28.128,6.505C7.759,32.938-0.229,42.126,0.005,57.527c0.167,11.004,5.975,28.281,21.208,31.809   C15.771,83.369,10.266,64.85,13.161,49.152z M34.702,77.904c-2.955,1.184-6.892,2.709-8.954,2.709   c-5.858,0-10.276-4.205-10.276-9.781c0-3.846,3.571-8.354,8.774-11.711l8.522,6.088l0.708-2.721   c-0.02-1.129-0.029-2.275-0.029-3.445c0-4.348,0.141-8.416,0.472-12.151l-4.564,5.762l-7.603-3.272l4.864-6.142l-7.195-3.097   l5.139-6.488l7.196,3.097l4.864-6.142l0.927,0.399c1.497-3.159,3.479-5.549,6.068-7.024c-4.521-0.574-25.916,1.661-29.645,25.314   c-3.462,18.77,4.289,33.864,6.747,38.043c1.364,2.318,8.945,9.955,21.565,6.08C38.254,90.564,35.943,85.143,34.702,77.904z    M62.817,84.537c0.712-2.01,1.284-4.297,1.727-6.936c-1.155-0.465-2.096-0.842-2.607-0.994l-1.63-6.521l-4.433,5.043   c-3.928-0.666-8.3-0.643-11.739,0.012l-4.441-5.055l-1.631,6.521c-0.512,0.152-1.452,0.529-2.608,0.994   c0.443,2.639,1.015,4.926,1.728,6.936C39.65,91.498,43.842,94.881,50,94.881C56.158,94.881,60.351,91.498,62.817,84.537z    M86.031,49.3C82.319,26.349,62.6,23.405,56.386,23.986c2.588,1.475,4.583,3.831,6.096,7.014l0.899-0.389l4.864,6.142l7.195-3.097   l5.139,6.488l-7.195,3.097l4.864,6.142l-7.603,3.272l-4.553-5.749c0.318,3.669,0.46,7.719,0.46,12.137   c0,1.178-0.01,2.324-0.03,3.441l0.709,2.725l8.522-6.088c5.204,3.357,8.774,7.865,8.774,11.711c0,5.576-4.418,9.781-10.276,9.781   c-2.065,0-6.015-1.531-8.971-2.717c-1.312,7.656-3.716,12.795-7.562,15.527c12.62,3.875,20.2-3.762,21.564-6.08   C81.742,83.164,89.493,68.07,86.031,49.3z M59.883,23.158C59.916,23.201,59.9,23.179,59.883,23.158   C59.866,23.136,59.849,23.113,59.883,23.158z M88.797,29.702c-5.301-4.979-24.34-6.248-28.913-6.544   c22.924,2.27,26.067,21.181,26.955,25.994c3.044,16.5-2.827,34.458-8.053,40.186c15.229-3.525,21.042-20.764,21.209-31.811   C100.229,42.126,92.242,32.938,88.797,29.702z"/></g><text x="0" y="115" fill="#000000" font-size="5px" font-weight="bold" font-family="'Helvetica Neue', Helvetica, Arial-Unicode, Arial, Sans-serif">Created by b farias</text><text x="0" y="120" fill="#000000" font-size="5px" font-weight="bold" font-family="'Helvetica Neue', Helvetica, Arial-Unicode, Arial, Sans-serif">from the Noun Project</text></svg>