<svg xmlns="http://www.w3.org/2000/svg" xmlns:xlink="http://www.w3.org/1999/xlink" version="1.1" x="0px" y="0px" viewBox="0 0 100 125" enable-background="new 0 0 100 100" xml:space="preserve"><g><path d="M6.232,74.41c-0.695,0-1.219-0.313-1.439-0.859c-0.373-0.924,0.229-2.304,1.573-3.6c2.421-2.335,3.673-6.593,4.084-7.994   c0.553-1.879,2.141-1.959,2.208-1.96c0.153,0.003,0.268,0.005,0.38,0.005c4.41,0,6.756-2.845,8.642-5.13   c0.459-0.557,0.893-1.082,1.31-1.499c1.292-1.292,2.606-2.848,3.179-3.725c-0.403,0.199-1.051,0.571-2.082,1.261   c-5.505,3.684-14.768,3.97-17.476,3.97c-0.533,0-0.834-0.012-0.834-0.012l-1.573-0.055l1.276-0.922   c2.584-1.866,4.655-3.6,6.481-5.128c3.892-3.258,6.462-5.411,9.89-5.411l0.147,0.001c4.856,0.09,10.13,1.261,10.183,1.272   c0.035,0.007,3.695,0.805,9.159,0.805c4.167,0,8.27-0.452,12.193-1.344c5.865-1.333,9.342-3.201,12.704-5.008   c3.175-1.706,6.178-3.321,10.746-4.092c-0.147-1.462-0.362-5.585,1.491-8.54l0.537-0.856l1.788,4.002   c0.839-1.785,2.61-2.593,3.609-2.782l0.872-0.164l-0.255,0.85c-0.627,2.087,0.13,4.049,0.381,4.608   c2.513,1.169,3.381,2.684,4.148,4.024c0.576,1.006,1.074,1.874,2.22,2.474c0.798,0.417,1.485,0.692,2.039,0.914   c1.398,0.56,2.503,1.002,1.721,2.959c-0.804,2.008-1.319,2.287-4.249,2.287c-0.418,0-0.892-0.005-1.432-0.011l-0.502-0.004   c-2.497,0-3.086,0.423-4.509,1.445c-0.798,0.573-1.891,1.358-3.678,2.315c-2.929,1.569-3.989,3.791-3.741,5.296   c0.178,1.083,1,1.798,2.314,2.018c0.447,0.075,0.885,0.138,1.309,0.2c3.472,0.509,6.469,0.949,7.587,6.109   c0.395,1.819,0.335,3.015-0.181,3.654c-0.242,0.299-0.585,0.464-0.966,0.464c-1.133,0-2.51-1.492-3.068-3.328   c-0.357-1.177-2.388-1.798-5.869-1.798c-1.63,0-3.212,0.136-4.258,0.227c-0.319,0.026-0.587,0.05-0.79,0.063   c-1.659,0.104-2.654-0.996-3.118-1.71c-2.984,2.029-5.703,2.865-9.24,2.865c-2.254,0-4.686-0.327-7.765-0.74   c-0.736-0.098-1.506-0.202-2.313-0.306c-2.878-0.37-4.708-0.986-6.177-1.482c-1.211-0.41-2.085-0.704-3.066-0.704   c-1.68,0-3.765,0.942-7.438,3.361c-3.724,2.454-8.072,3.698-12.921,3.698c-3.374,0-5.998-0.614-7.077-0.914   c-1.327,4.199-3.189,6.758-5.997,8.262C7.559,74.186,6.833,74.41,6.232,74.41z M12.66,61.076c-0.046,0.005-0.851,0.089-1.174,1.187   c-0.477,1.622-1.744,5.934-4.371,8.468c-1.205,1.161-1.45,2.099-1.322,2.417c0.018,0.045,0.074,0.184,0.438,0.184   c0.29,0,0.812-0.094,1.649-0.542c2.646-1.416,4.382-3.925,5.629-8.134l0.159-0.535l0.531,0.177c0.03,0.01,3.083,1.016,7.264,1.016   c4.635,0,8.782-1.183,12.328-3.518c3.918-2.581,6.095-3.542,8.032-3.542c1.158,0,2.153,0.338,3.412,0.762   c1.425,0.481,3.198,1.079,5.969,1.435c0.811,0.104,1.582,0.209,2.32,0.308c3.039,0.408,5.44,0.73,7.621,0.729   c3.485,0,6.124-0.87,9.106-3.007l0.551-0.396l0.262,0.625c0.028,0.067,0.767,1.738,2.367,1.626c0.198-0.014,0.46-0.035,0.77-0.062   c1.065-0.091,2.674-0.229,4.351-0.229c4.119,0,6.378,0.838,6.902,2.562c0.47,1.542,1.535,2.564,2.035,2.564   c0.05,0,0.083-0.01,0.126-0.063c0.073-0.093,0.419-0.654-0.034-2.746c-0.96-4.433-3.239-4.767-6.688-5.271   c-0.433-0.064-0.876-0.129-1.33-0.205c-1.754-0.292-2.951-1.378-3.202-2.905c-0.312-1.885,0.896-4.603,4.296-6.424   c1.725-0.924,2.741-1.655,3.559-2.241c1.526-1.097,2.293-1.647,5.138-1.647l0.513,0.004c0.536,0.005,1.006,0.01,1.421,0.01   c2.604,0,2.652-0.122,3.247-1.608c0.382-0.955,0.354-0.966-1.12-1.556c-0.575-0.229-1.292-0.516-2.138-0.958   c-1.426-0.746-2.051-1.838-2.657-2.894c-0.737-1.289-1.501-2.622-3.833-3.658l-0.172-0.076l-0.087-0.166   c-0.051-0.096-1.11-2.146-0.748-4.615c-0.863,0.386-2.114,1.253-2.332,3.078l-0.231,1.942l-2.324-5.203   c-1.394,3.181-0.781,7.342-0.774,7.388l0.081,0.535l-0.534,0.081c-4.676,0.706-7.568,2.26-10.914,4.059   c-3.268,1.755-6.969,3.745-12.976,5.11c-4.003,0.91-8.186,1.371-12.433,1.371c-5.592,0-9.241-0.796-9.394-0.83   c-0.053-0.012-5.223-1.159-9.968-1.247l-0.127-0.001c-3.036,0-5.487,2.052-9.197,5.158c-1.52,1.271-3.206,2.685-5.22,4.201   c3.342-0.064,11.257-0.569,16.053-3.779c2.204-1.475,2.903-1.673,3.295-1.673c0.327,0,0.591,0.164,0.705,0.438   c0.43,1.038-2.468,4.094-3.734,5.359c-0.381,0.38-0.798,0.888-1.241,1.423C20.542,57.949,17.82,61.265,12.66,61.076z"/></g><text x="0" y="115" fill="#000000" font-size="5px" font-weight="bold" font-family="'Helvetica Neue', Helvetica, Arial-Unicode, Arial, Sans-serif">Created by Bakunetsu Kaito</text><text x="0" y="120" fill="#000000" font-size="5px" font-weight="bold" font-family="'Helvetica Neue', Helvetica, Arial-Unicode, Arial, Sans-serif">from the Noun Project</text></svg>