<svg xmlns="http://www.w3.org/2000/svg" xmlns:xlink="http://www.w3.org/1999/xlink" version="1.1" x="0px" y="0px" viewBox="0 0 100 125" enable-background="new 0 0 100 100" xml:space="preserve"><g><path fill="none" d="M35.356,43.164c2.817-0.904,11.391-3.054,25.888-1.706c-4.59-2.26-10.997-3.945-19.842-3.663   c-3.098,0.099-5.919,0.443-8.526,0.935C33.676,39.875,34.581,41.37,35.356,43.164z"/><path fill="none" d="M36.113,58.152c-0.552,1.694-1.345,3.448-2.435,5.25c2.629,0.324,5.462,0.485,8.554,0.386   c7.004-0.224,12.397-1.585,16.547-3.406C47.011,60.99,38.947,59.007,36.113,58.152z"/><path fill="none" d="M30.481,39.243C18.62,42.099,12.185,48.388,9.667,51.457c-0.211,0.255-0.083,0.61,0.15,0.859   c2.789,2.943,9.582,8.659,21.407,10.723C38.626,51.734,33.178,42.643,30.481,39.243z M20.596,53.104   c-1.662,0.053-3.052-1.251-3.105-2.912c-0.053-1.662,1.251-3.052,2.913-3.105c1.662-0.053,3.052,1.251,3.105,2.912   S22.258,53.05,20.596,53.104z"/><polygon fill="none" points="76.54,48.351 90.295,59.541 89.618,38.389  "/><path fill="none" d="M68.594,46.769c-0.756-0.797-1.675-1.642-2.768-2.483c-16.728-2.282-26.689,0.102-29.671,1.02   c0.96,3.008,1.418,6.623,0.559,10.647c2.952,0.877,12.813,3.299,26.925,1.754c3.981-2.712,6.151-5.693,7.189-7.522   c0.115-0.204,0.107-0.445-0.021-0.642C70.308,48.781,69.587,47.816,68.594,46.769z"/><path d="M94.022,33.835c-0.026-0.85-0.528-1.612-1.295-1.98c-0.769-0.366-1.677-0.272-2.354,0.244L73.224,45.16   c-3.944-4.855-13.183-12.51-31.968-11.909C20.372,33.918,9.75,44.188,6.151,48.573c-1.612,1.967-1.521,4.851,0.214,6.711   c0.048,0.051,0.096,0.101,0.147,0.155c4.004,4.225,15.24,13.554,35.868,12.894C63.518,67.657,71.91,57.338,74.64,52.666   l16.653,13.548c0.69,0.564,1.645,0.67,2.444,0.274c0.797-0.395,1.292-1.219,1.262-2.109L94.022,33.835z M41.402,37.796   c8.846-0.283,15.252,1.402,19.842,3.663c-14.497-1.349-23.072,0.801-25.888,1.706c-0.774-1.794-1.68-3.289-2.48-4.433   C35.483,38.239,38.303,37.895,41.402,37.796z M9.817,52.316c-0.233-0.249-0.361-0.604-0.15-0.859   c2.518-3.069,8.953-9.358,20.814-12.214c2.697,3.4,8.144,12.492,0.742,23.796C19.399,60.975,12.606,55.259,9.817,52.316z    M42.233,63.788c-3.092,0.099-5.925-0.062-8.554-0.386c1.09-1.802,1.883-3.556,2.435-5.25c2.835,0.854,10.898,2.838,22.667,2.23   C54.629,62.202,49.237,63.564,42.233,63.788z M70.828,50.185c-1.039,1.829-3.208,4.81-7.189,7.522   c-14.112,1.544-23.973-0.878-26.925-1.754c0.859-4.024,0.401-7.639-0.559-10.647c2.983-0.918,12.944-3.302,29.671-1.02   c1.094,0.841,2.013,1.686,2.768,2.483c0.993,1.048,1.714,2.012,2.212,2.774C70.935,49.74,70.943,49.98,70.828,50.185z    M76.54,48.351l13.079-9.962l0.676,21.152L76.54,48.351z"/><ellipse transform="matrix(0.9995 -0.032 0.032 0.9995 -1.5901 0.6806)" cx="20.5" cy="50.095" rx="3.01" ry="3.01"/></g><text x="0" y="115" fill="#000000" font-size="5px" font-weight="bold" font-family="'Helvetica Neue', Helvetica, Arial-Unicode, Arial, Sans-serif">Created by Alena Artemova</text><text x="0" y="120" fill="#000000" font-size="5px" font-weight="bold" font-family="'Helvetica Neue', Helvetica, Arial-Unicode, Arial, Sans-serif">from the Noun Project</text></svg>