<svg xmlns="http://www.w3.org/2000/svg" viewBox="0 0 64 80" x="0px" y="0px"><title>1</title><path d="M43.47808,40.9208a7.97481,7.97481,0,0,0-.19879-1.27716l4.01227-5.70721a8.49022,8.49022,0,0,0,.56738-8.71729c-1.86094-3.228-4.92551-9.63079-9.22936-8.30436L34.30425,18.4711c-2.6981,1.21813-6.42356-.75472-8.97462-1.56649a3.7569,3.7569,0,0,0-3.26561.43709c-2.34961,1.56787-4.52344,5.14942-5.93359,7.877a8.49147,8.49147,0,0,0,.57129,8.72363l4.00286,5.69348a5.0806,5.0806,0,0,0,2.8713,6.05668,6.09252,6.09252,0,0,0,6.08189,5.95247h3.28711a6.10258,6.10258,0,0,0,6.07037-5.51275A5.0235,5.0235,0,0,0,43.47808,40.9208Zm-25.13574-8.123a6.50715,6.50715,0,0,1-.43455-6.66065c1.90121-3.42467,4.434-7.96621,6.78111-7.33807,3.0983,1.07047,7.01518,2.9761,10.29211,1.55371l4.2959-1.54572c2.33846-.685,4.91518,3.921,6.80481,7.33041a6.508,6.508,0,0,1-.43081,6.65445L42.465,37.32339c-1.11716-2.25235-2.90063-5.76138-6.07584-5.60855l-8.78024-.00009c-3.16868-.15533-4.9702,3.35177-6.08775,5.60426ZM32.94488,49.64492H29.65777a4.08232,4.08232,0,0,1-4.03052-3.51147c.89825.06887,4.76774-1.04225,5.70535-1.21943.91577-.35431,4.37186.85624,5.666,1.09472A4.087,4.087,0,0,1,32.94488,49.64492Zm-.21094-10.249a1.04472,1.04472,0,0,1-1.47558,0L29.71246,37.85l4.57617-.0083ZM40.44,43.43057a3.2193,3.2193,0,0,1-2.79395.67822s-4.60113-1.14544-4.65137-1.15637v-1.4306c.959-.21781,2.4666-2.1167,3.17879-2.73724a1.73589,1.73589,0,0,0-1.22378-2.94431l-5.90325.0112a1.73569,1.73569,0,0,0-1.21672,2.94436c.72288.62507,2.20138,2.49941,3.16494,2.72518l0,1.42549c-.043.00915-4.55761,1.08661-4.55761,1.08661a3.12235,3.12235,0,0,1-3.89546-3.33355A13.59525,13.59525,0,0,1,25.355,34.83145a2.79566,2.79566,0,0,1,2.2539-1.1167h8.78028a2.77175,2.77175,0,0,1,2.23925,1.10742C40.7188,37.91932,42.81105,41.14608,40.44,43.43057Z"/><path d="M26.6109,29.42178a1.00535,1.00535,0,0,0,.46184-1.88722l-3.42181-1.77733a1,1,0,0,0-.92181,1.77444C22.72906,27.53164,26.45562,29.42178,26.6109,29.42178Z"/><path d="M59.93707,32.35586c-.38678-5.23-2.709-10.0462-6.90314-14.38019,9.53976-4.6447.81694-16.49023-7.35439-10.775l.29561-1.73788a1.00055,1.00055,0,0,0-.999-1.16748c-.3955.00537-9.11913.15918-12.97753,3.23242-3.83984-3.09717-12.5918-3.228-12.98828-3.23242a1.00025,1.00025,0,0,0-.99609,1.16748l.29559,1.73773C14.05949,3.80424,6.73205,6.672,6.80726,12.1407a6.34562,6.34562,0,0,0,3.42085,5.48566,6.887,6.887,0,0,0,.72824.3484c-4.1947,4.33423-6.51727,9.15076-6.904,14.3811-.81748,12.19068,9.12378,23.1819,10.23314,22.88987a1.00178,1.00178,0,0,0,.73268-.45872l1.36328-2.15185,6.11817,5.84033a.99994.99994,0,0,0,1.49414-.12744l2.65137-3.57715,4.64257,4.64356a.99967.99967,0,0,0,1.41407,0l4.64257-4.64356,2.65137,3.57715a1.00775,1.00775,0,0,0,1.49414.12742L47.608,52.63516,48.97125,54.787a1.0077,1.0077,0,0,0,1.54882.17527C50.942,54.54434,60.84136,44.58926,59.93707,32.35586ZM50.13336,7.725c3.966-.09006,6.65015,4.18347,3.9716,7.12117a4.9224,4.9224,0,0,1-2.714,1.53477q-1.09011-.98527-2.31518-1.93475l2.05664-2.21093a1.00693,1.00693,0,0,0-.583-1.66991l-4.70889-.712A5.22791,5.22791,0,0,1,50.13336,7.725ZM9.86968,14.83145C5.709,9.44916,14.64262,4.90754,18.149,9.85344L13.44,10.56533a1.00694,1.00694,0,0,0-.583,1.66994l2.05661,2.21092q-1.22653.94876-2.31488,1.93451A4.9244,4.9244,0,0,1,9.86968,14.83145ZM49.96343,52.61514l-1.31835-2.08106a1.00569,1.00569,0,0,0-1.53517-.188L40.92828,56.247l-2.667-3.59864a1.00558,1.00558,0,0,0-1.51075-.11131l-4.75586,4.75633L27.23883,52.537a1.00639,1.00639,0,0,0-1.51074.11134l-2.667,3.59863L16.87945,50.3461a1.00565,1.00565,0,0,0-1.53515.188l-1.31837,2.081c-6.347-7.04379-12.92468-21.00084-2.56634-32.242l.48627.29234C8.775,25.12051,7.50543,29.74649,8.1734,34.43057c1.29492,9.09521,9.38378,15.07959,9.72753,15.33008a1.00058,1.00058,0,0,0,1.25293-.061l3.10938-2.7622a1.00008,1.00008,0,0,0-1.32817-1.49509l-2.4814,2.20407c-1.86524-1.55469-7.32227-6.63086-8.30078-13.498-.63281-4.44531.72754-8.873,4.04394-13.16015a1.00683,1.00683,0,0,0-.2754-1.46875l-1.05266-.63276a35.32237,35.32237,0,0,1,4.124-3.503,1.00124,1.00124,0,0,0,.14063-1.4873L15.6109,12.25967l4.44043-.67139a.99876.99876,0,0,0,.83593-1.15625L20.191,6.33828c3.2168.1792,9.0918.95508,11.0459,3.21729a1.00251,1.00251,0,0,0,.75293.34619,1.06542,1.06542,0,0,0,.75488-.33984c1.97559-2.24756,7.84082-3.03369,11.05274-3.22071L43.10211,10.432a.99876.99876,0,0,0,.83593,1.15625l4.44043.67139L46.856,13.89639a1.00124,1.00124,0,0,0,.14063,1.4873,35.38389,35.38389,0,0,1,4.09644,3.476l-1.2273.52106A1.006,1.006,0,0,0,49.4654,20.913c8.30636,10.268,2.89055,20.97768-3.93972,26.72506l-2.47143-2.19577a1.00008,1.00008,0,0,0-1.32808,1.49515l3.10933,2.76217a1.00045,1.00045,0,0,0,1.2627.05371c6.09833-4.55553,14.69827-16.78207,5.71456-29.02688l.74778-.31729A20.45063,20.45063,0,0,1,57.942,32.4916C58.63336,41.7709,52.30718,49.9335,49.96343,52.61514Z"/><path d="M37.37847,29.42178c.15528,0,3.88184-1.89014,3.88184-1.89014a1,1,0,0,0-.92193-1.77438l-3.42182,1.77731A1.00536,1.00536,0,0,0,37.37847,29.42178Z"/><text x="0" y="79" fill="#000000" font-size="5px" font-weight="bold" font-family="'Helvetica Neue', Helvetica, Arial-Unicode, Arial, Sans-serif">Created by sentya irma</text><text x="0" y="84" fill="#000000" font-size="5px" font-weight="bold" font-family="'Helvetica Neue', Helvetica, Arial-Unicode, Arial, Sans-serif">from the Noun Project</text></svg>