<svg xmlns="http://www.w3.org/2000/svg" xmlns:xlink="http://www.w3.org/1999/xlink" version="1.1" x="0px" y="0px" viewBox="0 0 100 125" enable-background="new 0 0 100 100" xml:space="preserve"><g><path d="M88.305,9.542h-54v26.13c-7,0.478-12.795,7.631-12.795,16.183c0,5.679,2.366,10.688,6.097,13.688h-2.984   c-5.721,0-10.317,6.09-10.317,13.678v15.322h42V79.22c0-0.338-0.257-0.678-0.274-0.678h32.274V9.542z M42.056,65.542   c3.731-3,6.335-8.009,6.335-13.688c0-7.524-4.086-14-10.086-15.738V13.542h46v61H55.374c-0.304-1-0.695-2-1.173-3h23.104V60.544   c0-5.494-3.646-10.002-7.704-10.002h-2.613c2.656-2,4.425-5.566,4.425-9.608c0-6.306-4.293-11.426-9.567-11.426   s-9.565,5.115-9.565,11.421c0,4.042,1.769,7.613,4.425,9.613h-2.125c-4.072,0-7.274,4.602-7.274,10.002l-0.013,5.331L42.056,65.542   z"/></g><text x="0" y="115" fill="#000000" font-size="5px" font-weight="bold" font-family="'Helvetica Neue', Helvetica, Arial-Unicode, Arial, Sans-serif">Created by bmijnlieff</text><text x="0" y="120" fill="#000000" font-size="5px" font-weight="bold" font-family="'Helvetica Neue', Helvetica, Arial-Unicode, Arial, Sans-serif">from the Noun Project</text></svg>