<svg xmlns="http://www.w3.org/2000/svg" data-name="Layer 1" viewBox="0 0 100 125" x="0px" y="0px"><title>icons_animals_4</title><path d="M3.19,25.51c3.21-3.32,6.89-4.4,10.36-3,4.06,1.59,6.88,6.3,7,11.72.12,4.92-3.29,6.31-7.24,7.92S4.92,45.53,5,51.51a10.66,10.66,0,0,0,3.13,7.86c3.38,3.26,8.35,3.53,9.55,3.55,4.34,2.09,4.66,7.92,4.66,8a1,1,0,0,0,1,1H35.51a1,1,0,0,0,1-1.08h5.92a1,1,0,0,0,1-.74,3,3,0,0,0-.63-2.64,4.25,4.25,0,0,0-2.6-1.3c7.51.45,16.68-.15,20.59-1.75a13.09,13.09,0,0,1-1.31,6,1,1,0,0,0,.86,1.5h11.3a1,1,0,0,0,1-1.07h7.2a1,1,0,0,0,1-1.16c-.52-3.11-4.51-3.63-6.53-3.69l.68-7.86.92-1.22c2.87-3.81,8.38-7,13.24-9.83,5.79-3.36,10.37-6,9.24-9.13-1.75-4.8-15-8.94-18.6-9.63-1.05-2.47-4.51-4.14-4.94-4.34a1,1,0,0,0-1,.12l-2.7,2.13a11.19,11.19,0,0,1-1.48-1.33,1,1,0,0,0-1.18-.24c-2.41,1.15-3.81,2.55-4.17,4.18a3.83,3.83,0,0,0,.1,2,30.94,30.94,0,0,0-6.94,4.71c-1.87-.53-8.15-1.9-19.29-.41-9.22,1.24-15.43,11-17.67,15.15-2,3.65-3.63,8-3.67,10.65a12.27,12.27,0,0,1-7.25-2.94A8.74,8.74,0,0,1,7,51.48c-.06-4.61,3.25-6,7.09-7.52,4-1.65,8.64-3.52,8.48-9.82S19.16,22.51,14.28,20.6C10.07,19,5.51,20.24,1.75,24.12a1,1,0,0,0,1.44,1.39Zm38.1,43.26H35.72a4,4,0,0,0-.88-.9,6.56,6.56,0,0,0-3.5-1.08,17.91,17.91,0,0,0,1-1.77,29.72,29.72,0,0,0,3.41.65l.16,1.5a1,1,0,0,0,1.1.89c3-.34,4,.32,4.24.62ZM37.76,66v-.08l.69.06Zm34.69,1.64a1,1,0,0,0,.78.3,9.4,9.4,0,0,1,4.72.85H71.82a5.9,5.9,0,0,0-3.39-1.94c.81-1.12,2.18-3,4.22-5.74l-.5,5.75A1,1,0,0,0,72.44,67.63ZM22.18,51.17c2.1-3.87,7.87-13,16.17-14.12,12.67-1.7,18.86.47,18.92.49a1,1,0,0,0,1-.2s4.58-4.17,7.69-5a1,1,0,0,0,.67-.66,1,1,0,0,0-.17-.93,1.9,1.9,0,0,1-.32-1.52,4.45,4.45,0,0,1,2.44-2.46,19.89,19.89,0,0,0,1.79,1.46l.12.09A70.66,70.66,0,0,0,77,32.33a1,1,0,1,0,1-1.75c-1.07-.59-3.28-1.88-5.23-3.2L74.49,26c1.18.65,3.21,2,3.51,3.37a1,1,0,0,0,1,.78c2,0,16.12,4.69,17.48,8.41.56,1.53-4.18,4.28-8.37,6.71-5,2.92-10.72,6.22-13.83,10.35C68.08,63.81,65.86,67,65.84,67a1,1,0,0,0,.79,1.57s2.46.1,3.5,1.25H61.82a16.55,16.55,0,0,0,.82-7.37,1,1,0,0,0-.81-.89,1,1,0,0,0-1.07.53c-1.2,1.65-14.7,2.87-23.82,1.74a1,1,0,0,0-.38,0,25.85,25.85,0,0,1-4.53-1,1,1,0,0,0-1.25.61,18,18,0,0,1-2.16,3.8,1,1,0,0,0,1,1.58c.73-.12,2.88-.25,4.08.62a2.11,2.11,0,0,1,.39.37H24.23c-.28-2-1.37-6.54-5.48-8.65C18.61,60,19.54,56.05,22.18,51.17Z"/><text x="0" y="115" fill="#000000" font-size="5px" font-weight="bold" font-family="'Helvetica Neue', Helvetica, Arial-Unicode, Arial, Sans-serif">Created by Iconic</text><text x="0" y="120" fill="#000000" font-size="5px" font-weight="bold" font-family="'Helvetica Neue', Helvetica, Arial-Unicode, Arial, Sans-serif">from the Noun Project</text></svg>