<svg xmlns="http://www.w3.org/2000/svg" data-name="Layer 1" viewBox="0 0 100 125" x="0px" y="0px"><title>05</title><g data-name="Group"><path data-name="Compound Path" d="M73.2,7.3,59.3,18,50.1,3.2,40.2,18,26.8,7l4.4,30.3h.8a19,19,0,1,0,36.2,0h.8ZM41.5,26.8l8.4-12.5,7.8,12.5L65.2,21,63.7,31.3H36.3l-1.4-10ZM63,43.1a13,13,0,1,1-24.7-5.8H61.6A12.9,12.9,0,0,1,63,43.1Z"/><path data-name="Path" d="M24.7,96.8c0-15,10.9-26.4,25.3-26.4S75.3,81.8,75.3,96.8h6c0-18-13.7-32.4-31.3-32.4S18.7,78.8,18.7,96.8Z"/></g><text x="0" y="115" fill="#000000" font-size="5px" font-weight="bold" font-family="'Helvetica Neue', Helvetica, Arial-Unicode, Arial, Sans-serif">Created by icongeek</text><text x="0" y="120" fill="#000000" font-size="5px" font-weight="bold" font-family="'Helvetica Neue', Helvetica, Arial-Unicode, Arial, Sans-serif">from the Noun Project</text></svg>