<svg xmlns="http://www.w3.org/2000/svg" data-name="Layer 1" viewBox="0 0 100 125" x="0px" y="0px"><path d="m44.375,51.875c0-3.102-2.523-5.625-5.625-5.625s-5.625,2.523-5.625,5.625,2.523,5.625,5.625,5.625,5.625-2.523,5.625-5.625Zm-5.625,1.875c-1.034,0-1.875-.84-1.875-1.875s.841-1.875,1.875-1.875,1.875.841,1.875,1.875-.841,1.875-1.875,1.875Z"/><path d="m61.25,46.25c-3.102,0-5.625,2.523-5.625,5.625s2.523,5.625,5.625,5.625,5.625-2.523,5.625-5.625-2.523-5.625-5.625-5.625Zm0,7.5c-1.034,0-1.875-.84-1.875-1.875s.841-1.875,1.875-1.875,1.875.841,1.875,1.875-.841,1.875-1.875,1.875Z"/><path d="m58.518,68.582c-5.279,2.714-11.757,2.714-17.036,0-.922-.474-2.052-.11-2.525.811s-.11,2.051.811,2.525c3.13,1.608,6.668,2.457,10.232,2.457s7.102-.85,10.232-2.457c.921-.474,1.284-1.604.811-2.525s-1.603-1.285-2.525-.811Z"/><path d="m89.375,46.25h-5.625v-5.625c0-5.169-4.206-9.375-9.375-9.375h-22.5v-7.766c3.226-.839,5.625-3.749,5.625-7.234,0-4.135-3.365-7.5-7.5-7.5s-7.5,3.365-7.5,7.5c0,3.484,2.399,6.395,5.625,7.234v7.766h-22.5c-5.169,0-9.375,4.206-9.375,9.375v5.625h-5.625c-3.102,0-5.625,2.523-5.625,5.625v16.875c0,3.102,2.523,5.625,5.625,5.625h5.625v5.625c0,5.169,4.206,9.375,9.375,9.375h48.75c5.169,0,9.375-4.206,9.375-9.375v-5.625h5.625c3.102,0,5.625-2.523,5.625-5.625v-16.875c0-3.102-2.523-5.625-5.625-5.625Zm-43.125-30c0-2.068,1.682-3.75,3.75-3.75s3.75,1.682,3.75,3.75-1.682,3.75-3.75,3.75-3.75-1.682-3.75-3.75ZM10.625,70.625c-1.034,0-1.875-.84-1.875-1.875v-16.875c0-1.034.841-1.875,1.875-1.875h5.625v20.625h-5.625Zm69.375,9.375c0,3.102-2.523,5.625-5.625,5.625H25.625c-3.102,0-5.625-2.523-5.625-5.625v-39.375c0-3.102,2.523-5.625,5.625-5.625h48.75c3.102,0,5.625,2.523,5.625,5.625v39.375Zm11.25-11.25c0,1.035-.841,1.875-1.875,1.875h-5.625v-20.625h5.625c1.034,0,1.875.841,1.875,1.875v16.875Z"/><text x="0" y="115" fill="#000000" font-size="5px" font-weight="bold" font-family="'Helvetica Neue', Helvetica, Arial-Unicode, Arial, Sans-serif">Created by Hilmy Abiyyu Asad</text><text x="0" y="120" fill="#000000" font-size="5px" font-weight="bold" font-family="'Helvetica Neue', Helvetica, Arial-Unicode, Arial, Sans-serif">from the Noun Project</text></svg>