<svg xmlns="http://www.w3.org/2000/svg" data-name="Layer 1" viewBox="0 0 100 125" x="0px" y="0px"><title>icons_animals_3</title><path d="M18.18,82.38l0-1c.12-3.78-2.08-5.49-3.54-6.62-.57-.44-1.15-.9-1.21-1.14.12-.79,3.09-3.1,6.36-4.94L20,68.6l.29-.26,3.2,6.22c-.35,1.35-1.15,5.37,1,7.53l.29.29H40.37l.22-.7A5.8,5.8,0,0,0,40,77.35c-1-1.81-3-3.1-5.83-3.81a8.75,8.75,0,0,1,.89-2.86A59.51,59.51,0,0,0,38,62.62a70.87,70.87,0,0,0,9.73-.95L45.55,78.83l1.51,3.55H63l.06-.93c.23-3.45-2.27-6-4.25-7a50.88,50.88,0,0,0,1.51-9l.73-.63L66.8,74.84c-.28,1.23-.86,4.81,1,7.17l.3.38H83.86v-1a8.43,8.43,0,0,0-6.89-8C75.17,69.28,72,52.5,72.44,50.72a37,37,0,0,0,1.71-4.35,8.33,8.33,0,0,0,4-1.44l5.17,2.2h.18c2.57.14,11.1.45,13-1.33a7.75,7.75,0,0,0,2.33-3.7l.1-.46-.29-.37c-.1-.13-2.48-3.14-3.71-4.53a4.63,4.63,0,0,1-1.06-2.24,17.65,17.65,0,0,0-.55-1.77c-.66-1.76-3.71-4.47-5.07-5.63a6.33,6.33,0,0,0,.59-4,2.7,2.7,0,0,0-1.38-1.67c-1.45-.76-3.3.14-4.84,1.3a44.27,44.27,0,0,0-28,4.88c-1.33,0-8,.21-20.69-.58-9.26-.58-18.7,2.64-24.64,8.38a22.1,22.1,0,0,0-6.85,17c.48,16.32-1.19,25.88-1.21,26l-.07.4,2.49,3.63Zm15.1-12.52c-.46,1-1.46,3.33-.88,4.65a1.62,1.62,0,0,0,1.07.92c2.43.57,4,1.55,4.83,2.89a3.81,3.81,0,0,1,.51,2.07H25.66c-1.06-1.52-.49-4.54-.16-5.64l.12-.39L21.8,66.93a31.76,31.76,0,0,0,4.46-5.3,46.14,46.14,0,0,0,9.71,1A63,63,0,0,1,33.27,69.86Zm42.11,4.9.23.43.48.08a6.45,6.45,0,0,1,5.62,5.11H69.12c-1.23-2.06-.3-5.38-.29-5.41l.12-.41L62.6,63.42,68.85,58l.15-.13.09-.17c.36-.71,1-1.91,1.63-3.28C71.57,61.1,74.3,72.73,75.38,74.76Zm-71-22.44a20.15,20.15,0,0,1,6.24-15.46c5.55-5.37,14.41-8.37,23.12-7.83,14.33.89,20.89.59,21.16.57h.26l.22-.14a42.8,42.8,0,0,1,25.14-5c-.41.41-.73.75-.89.94l1.5,1.32c1.81-2,4.44-4,5.32-3.54a.7.7,0,0,1,.38.46,5.34,5.34,0,0,1-.77,3.17l-1.24,1.64,1.6,1.2.65-.86c1.7,1.45,3.88,3.56,4.28,4.62A16,16,0,0,1,91.89,35a6.58,6.58,0,0,0,1.49,3.05c.92,1,2.59,3.13,3.3,4a6.77,6.77,0,0,1-1.61,2.26c-.83.79-6.48,1-11.32.8l-5.38-2.3-.6-.25L77.3,43a6.09,6.09,0,0,1-4,1.36l-1,0,0,1c0,1-2.57,6.52-4.94,11.2l-9,7.8,0,.4c-.3,3.35-1,8.53-1.71,9.57l-.75,1.13,1.3.38A6.24,6.24,0,0,1,61,80.38H48.38l-.78-1.83,2.19-17,0-.17a45.68,45.68,0,0,1-1-6.88h-2a33.26,33.26,0,0,0,.66,5.24c-2.94.49-12,1.75-20.05.12,2-3.69,1.74-6,1.72-6.21l-2,.21c0,.05.38,5.59-8.31,13.19-3.59,2-7.71,4.86-7.25,7a4.44,4.44,0,0,0,1.94,2.36c1.23,1,2.49,1.94,2.73,4H4.68L3.25,78.29C3.57,76.28,4.86,67.16,4.42,52.31Z"/><text x="0" y="115" fill="#000000" font-size="5px" font-weight="bold" font-family="'Helvetica Neue', Helvetica, Arial-Unicode, Arial, Sans-serif">Created by Iconic</text><text x="0" y="120" fill="#000000" font-size="5px" font-weight="bold" font-family="'Helvetica Neue', Helvetica, Arial-Unicode, Arial, Sans-serif">from the Noun Project</text></svg>