<svg xmlns="http://www.w3.org/2000/svg" viewBox="0 0 100 125" x="0px" y="0px"><g data-name="Layer 2"><path d="M26.178,56.182a3.8,3.8,0,1,0,3.8,3.8A3.808,3.808,0,0,0,26.178,56.182Zm0,4.608a.8.8,0,1,1,.8-.8A.8.8,0,0,1,26.178,60.79Z"/><path d="M26.178,68.234a8.257,8.257,0,0,0,8.1-6.744h30.7a8.241,8.241,0,0,0,16.207,0h4.466a24.528,24.528,0,0,0,6.4-.857l.829-.215A1.5,1.5,0,0,0,94,58.966V57.891A15.867,15.867,0,0,0,79.192,42.1l-9.075-.578A37.11,37.11,0,0,0,45.2,31.767q-.389,0-.784.008c-11.476.236-23.93,4.834-30.331,7.553A16.808,16.808,0,0,1,7.5,40.663a1.5,1.5,0,0,0-1.5,1.5v3.778a5.8,5.8,0,0,0,.947,3.192A5.92,5.92,0,0,0,6.082,52.2v3.84a5.452,5.452,0,0,0,5.452,5.452h6.541A8.255,8.255,0,0,0,26.178,68.234Zm0-3a5.248,5.248,0,1,1,5.247-5.248A5.253,5.253,0,0,1,26.178,65.234Zm52.147-5.227a5.249,5.249,0,1,1,0-.039l0,.022ZM44.478,34.775c.234,0,.466-.008.7-.008a34.465,34.465,0,0,1,20.256,6.789l-18.62.349-2.571-7.12C44.32,34.783,44.4,34.776,44.478,34.775Zm-3.357.2,2.523,6.987-15.436.289-2.173-4.117A75.744,75.744,0,0,1,41.121,34.977ZM11.534,58.49a2.451,2.451,0,0,1-2.452-2.452V52.2a2.9,2.9,0,0,1,.841-2.033,1.5,1.5,0,0,0,0-2.121l-.082-.082A2.842,2.842,0,0,1,9,45.941V43.607a19.743,19.743,0,0,0,6.254-1.518c2.064-.876,4.784-1.954,7.887-3.01l2.414,4.573a3.037,3.037,0,0,0,2.7,1.633h.062l41.1-.8L79,45.093A12.861,12.861,0,0,1,91,57.807a21.544,21.544,0,0,1-5.351.683H81.184a8.24,8.24,0,0,0-16.209,0H34.282a8.24,8.24,0,0,0-16.209,0Z"/><path d="M73.08,56.182a3.8,3.8,0,1,0,3.8,3.8A3.809,3.809,0,0,0,73.08,56.182Zm0,4.608a.8.8,0,1,1,.8-.8A.806.806,0,0,1,73.08,60.79Z"/></g><text x="0" y="115" fill="#000000" font-size="5px" font-weight="bold" font-family="'Helvetica Neue', Helvetica, Arial-Unicode, Arial, Sans-serif">Created by tasrif</text><text x="0" y="120" fill="#000000" font-size="5px" font-weight="bold" font-family="'Helvetica Neue', Helvetica, Arial-Unicode, Arial, Sans-serif">from the Noun Project</text></svg>