<svg xmlns="http://www.w3.org/2000/svg" xmlns:xlink="http://www.w3.org/1999/xlink" version="1.1" x="0px" y="0px" viewBox="0 0 902.5 840.125" style="enable-background:new 0 0 902.5 672.1;" xml:space="preserve"><style type="text/css">
	.st0{fill:none;stroke:#000000;stroke-width:13.4939;stroke-linecap:round;stroke-miterlimit:10;}
	.st1{fill:none;stroke:#000000;stroke-width:13.4939;stroke-linecap:round;stroke-linejoin:round;stroke-miterlimit:10;}
	.st2{fill:none;stroke:#000000;stroke-width:9.6385;stroke-linecap:round;stroke-linejoin:round;stroke-miterlimit:10;}
</style><path class="st0" d="M461.8,224.9c0,0,13.3,5.8,19.4,14.2"/><path class="st1" d="M490.5,314.2c0,0-3.9,7.4-26,7.4c-43.3,0-78.1-62.4-42-92c13.3-10.9,33.9-7.3,40.6-4.2  c2.1-6.6,10.9-36.9,46.8-42.3c64.8-9.7,110,62.6,153.9,44.1c58.1-24.5,55.1-94.9,29-119.4c-11.8-11.1-28.6-15.9-37.5-9.1  c-11.4,8.6-21.1-2.6-11.3-13.9c12.7-14.8,46.6-16.8,68.7,1.9c62.5,52.8,48.1,190-67.8,228.3c-20.5,6.8-25.4,11.5-38.3,15.7  c12.6,2.8,16.1,3.7,25.2,6.6c-62.2,27.1-100.6,57.2-93.5,116.1c5.9,48.8,11.9,65.1,16.4,78c4.6,13.3-9.6,25.5-20.1,30.2  c-10.2,4.6-41.6,15.6-63,12.6c-21.4-3-20-7.5-26.5-18.7c-6.5-11.3-8.5-59.1-5.1-98.6"/><path class="st1" d="M409,278.4c0,0-137-11.8-196.9,38.3c-30.9,25.8-35.7,67.5-28.9,116.5  c8.2,58.6-15.6,72-22.8,104.9c-2.3,14.3,3.7,23.4,14.9,26.1c11.4,2.7,56.8,9,73.7,10.5c7.7,0.7,16.6-3.2,21.2-11.4  c6.6-11.8,30.4-71.4,22.9-108.2"/><path class="st1" d="M295.1,477c0,0,91.7,41.4,141,0.8"/><path class="st1" d="M197.8,332.2c0,0-43.2,41.1-44.6,76.8"/><path class="st2" d="M553.5,244.3c-11.8-10.8-28.8-3.8-26.7,12.3"/><text x="0" y="687.1" fill="#000000" font-size="5px" font-weight="bold" font-family="'Helvetica Neue', Helvetica, Arial-Unicode, Arial, Sans-serif">Created by Waleed Elagamy</text><text x="0" y="692.1" fill="#000000" font-size="5px" font-weight="bold" font-family="'Helvetica Neue', Helvetica, Arial-Unicode, Arial, Sans-serif">from the Noun Project</text></svg>