<svg xmlns="http://www.w3.org/2000/svg" xmlns:xlink="http://www.w3.org/1999/xlink" version="1.1" x="0px" y="0px" viewBox="0 0 100 125" style="enable-background:new 0 0 100 100;" xml:space="preserve"><g><path d="M62.48616,58.78877c-5.14919,0-9.68103-2.30229-13.10006-6.82627c-0.94373-1.24453-1.80094-2.43599-2.60114-3.54683   c-2.6208-3.63727-4.53381-6.29149-6.76532-7.16935c-2.58541-0.23888-4.47482,0.23003-5.59943,1.39789   c-0.64684,0.66847-1.7105,0.68715-2.38094,0.04227c-0.66847-0.64488-0.68813-1.71148-0.04129-2.37995   c1.91497-1.9828,4.80709-2.78399,8.58002-2.3888c0.12779,0.01376,0.25559,0.04227,0.37749,0.08454   c3.30893,1.15606,5.62695,4.37259,8.56036,8.44534c0.78644,1.09118,1.62792,2.25904,2.55395,3.48391   c6.19319,8.18484,14.80663,5.39692,19.39549,3.00615c0.82182-0.43254,1.84419-0.1101,2.27084,0.71369   c0.43057,0.82379,0.1101,1.84223-0.71369,2.27084C69.34585,57.84111,65.78918,58.78877,62.48616,58.78877z"/><path d="M64.99489,44.52871c-0.34997,0-0.70387-0.10912-1.00467-0.33522c-8.64097-6.45074-16.05706-7.4967-1.67099-3.19096   c-0.77661,0.20922-1.82257,0.28705-2.32982-0.4925c-0.50725-0.77956-0.28508-1.82159,0.49349-2.32883   c7.82701-5.09808,16.75503-3.98232,26.5206,3.31483c0.74515,0.5564,0.8985,1.61121,0.34209,2.35636   C66.01529,44.29475,65.50803,44.52871,64.99489,44.52871z"/><path d="M37.47748,56.02052c-3.80832,0-7.53602-1.55125-11.08482-4.6616c-0.44827-0.39125-0.65668-0.99288-0.54657-1.57681   c2.68175-14.25121,9.49228-21.31636,20.2527-21.00375c0.92996,0.02753,1.66135,0.80217,1.63382,1.73213   c-0.02752,0.91227-0.77464,1.63481-1.68297,1.63481c-0.01573,0-0.03146-0.00098-0.04915-0.00098   c-8.69405-0.27525-14.19518,5.40577-16.65476,17.29767c5.99264,4.79726,12.16421,4.22316,18.83515-1.74392   c0.6901-0.61932,1.75572-0.5623,2.377,0.13173c0.61932,0.69403,0.56034,1.75768-0.13173,2.377   C46.09486,54.08195,41.73603,56.02052,37.47748,56.02052z"/><path d="M72.24583,56.11292c-0.06291,0-0.12582-0.00196-0.1907-0.00983c-0.92406-0.1042-1.58861-0.93782-1.4844-1.86189   c1.12656-9.973-1.55322-16.71669-8.19664-20.61643c-0.8002-0.47088-1.06955-1.50308-0.59769-2.30426   c0.46793-0.80118,1.49423-1.07349,2.30426-0.59966c7.80145,4.58099,11.11037,12.62132,9.83635,23.89783   C73.8187,55.47787,73.09125,56.11292,72.24583,56.11292z"/><path d="M37.71734,69.46661c-0.46006,0-0.91816-0.18678-1.25043-0.55444c-3.95774-4.38831-3.1949-8.02951-1.85796-10.31215   c0.4699-0.80217,1.50013-1.07349,2.30426-0.60162c0.80217,0.46989,1.07152,1.50209,0.60162,2.30426   c-0.72352,1.23471-1.36053,3.23619,1.45294,6.35244c0.62325,0.69206,0.5682,1.75572-0.1219,2.37897   C38.52344,69.32505,38.12039,69.46661,37.71734,69.46661z"/><path d="M49.30745,72.34496c-4.14452,0-8.26741-1.01843-12.34312-3.05531c-0.83165-0.41681-1.16786-1.42738-0.75301-2.25903   c0.41681-0.82969,1.42738-1.16393,2.25904-0.75301c6.69847,3.34628,13.27701,3.60581,20.07182,0.77464   c0.232-1.68887-0.19464-2.66405-0.78054-3.29713c-7.15854,2.99042-14.75945,2.01918-22.59235-2.87639   c-0.7884-0.49349-1.02827-1.53158-0.53477-2.31998c0.48956-0.7884,1.53158-1.02827,2.31998-0.53478   c7.26274,4.5397,13.92385,5.27699,20.3628,2.24528c0.54264-0.24969,1.17572-0.20448,1.66921,0.13566   c1.80487,1.23471,3.73557,3.66479,2.68568,8.21433c-0.11797,0.51315-0.46793,0.94176-0.94766,1.15803   C56.91819,71.48972,53.10593,72.34496,49.30745,72.34496z"/><path d="M58.03296,63.47593c-0.25166,0-0.50922-0.05701-0.74908-0.17695c-0.83362-0.41484-1.16982-1.42542-0.75498-2.25707   c1.30745-2.6208,2.5048-4.30574,3.77096-5.30648c0.72942-0.58,1.78718-0.45417,2.36324,0.27525   c0.57803,0.72942,0.45417,1.78717-0.27525,2.36324c-0.83952,0.6665-1.79701,2.06833-2.8469,4.17008   C59.24604,63.1358,58.65228,63.47593,58.03296,63.47593z"/><path d="M36.05993,61.13432c-0.84935,0-1.57877-0.64095-1.67118-1.50406c-0.14943-1.37823-0.70583-2.99632-1.70657-4.94472   c-0.42467-0.82772-0.0983-1.84223,0.72942-2.2669c0.82969-0.42271,1.84223-0.09634,2.2669,0.72942   c1.19145,2.32392,1.86386,4.32737,2.05653,6.12437c0.10027,0.92406-0.57017,1.75375-1.49423,1.85206   C36.17986,61.13235,36.11891,61.13432,36.05993,61.13432z"/><path d="M63.56947,26.55176c-0.43057,0-0.86115-0.16515-1.18948-0.49349c-0.65864-5.65766-0.65864-1.72328,0-2.38094   c2.01328-2.01426,3.5311-4.51316,4.06195-6.68471c0.47972-1.91694,0.26542-3.64415-0.63702-5.14231   c-1.16196-1.93365-3.41706-3.39839-6.34851-4.12388c-2.92947-0.7304-5.60532-0.49054-7.53406,0.67928   c-1.4844,0.90342-2.46744,2.32982-2.92161,4.23987c-0.58983,2.21284-0.43058,5.0558,0.42664,7.84765   c0.27329,0.88867-0.22413,1.83043-1.11281,2.10372c-0.8926,0.26837-1.83043-0.2261-2.10372-1.11477   c-1.04006-3.37873-1.21308-6.9-0.47383-9.66039c0.64685-2.73188,2.18629-4.92407,4.4355-6.29247   c2.70534-1.64267,6.28952-2.02016,10.09784-1.06955c3.80045,0.94077,6.79285,2.94914,8.42077,5.65448   c1.35857,2.261,1.71246,4.91818,1.0204,7.68643c-0.6783,2.7771-2.48318,5.79014-4.95258,8.25758   C64.43062,26.38661,64.00005,26.55176,63.56947,26.55176z"/><path d="M53.35563,34.02782c-0.13173,0-0.26739-0.01573-0.39912-0.04817c-0.77267-0.18874-1.30745-0.89162-1.28386-1.68494   c0.04522-1.5483-0.33424-1.77735-0.49742-1.87467c-3.65496-2.14206-5.40085-5.458850.08356   c4.91326,1.17867,7.29419,2.40355,8.1986,4.22316c0.34013,0.68125,0.61736,1.78226,0.01573,3.16246   c-1.5886,3.76015-4.67537,5.89041-8.91819,6.14403c-0.25166,0.00295-0.65078,0.00295-1.32318,1.39199   C54.58443,33.66803,53.99068,34.02782,53.35563,34.02782z M50.83904,20.56207c-0.78447,0-1.11478,0.13271-1.2524,0.232   c-0.05701,0.04325-0.08061,0.19268-0.08847,0.31064c-0.25362,2.84395,0.85918,4.93292,3.39544,6.42027   c0.54854,0.32932,0.98895,0.74613,1.32515,1.25731c0.52495-0.28508,1.14426-0.46203,1.87565-0.46203   c2.8587-0.17302,4.82872-1.51782,5.92383-4.10815c0.10814-0.24674,0.07668-0.30868,0.06488-0.33227   c-0.13369-0.27132-0.96535-1.24945-5.98281-2.45368C53.38512,20.75376,51.78276,20.56207,50.83904,20.56207z"/><path d="M57.69283,26.49475c-1.74195,0-3.47408-0.42566-5.14722-1.26321c-0.83166-0.41583-1.16786-1.42738-0.75301-2.25904   c0.41681-0.83067,1.42738-1.16786,2.25904-0.75105c1.20128,0.60064,2.42616,0.90538,3.6412,0.90538   c0.92996,0,1.8298,0.754,1.68298,1.68396C59.3758,25.74075,58.62279,26.49475,57.69283,26.49475z"/><path d="M68.30972,17.53527c-0.58589,0-1.15409-0.305-0.80806-0.17695-1.83633,0.63112-2.29639   c0.92603-0.52691,1.57681-1.12755,1.96019-1.83141c-0.26346,0.05898-0.49742,0.06685-0.69796,0.05308   c-0.58196-0.03736-1.99558-0.36176-2.57362-2.54904c-1.03613-3.8034-4.16811-6.76827-5.73509-6.69257   c-0.91227,0.04817-1.29565,1.82945-1.41952,2.59229c-0.14549,0.91816-1.00664,1.54633-1.92873,1.39494   c-0.91816-0.14746-1.54338-1.01155-1.39396-1.92972c0.72942-4.54364,3.17327-5.3458,4.5633-5.42051   c3.69035-0.16613,7.51244,4.17696,8.94965,8.4709c0.1101-0.20251,0.2261-0.4463,0.34406-0.73728   c0.2674-0.65176,0.86115-1.0902,1.62006-1.04498c0.70386,0.02458,1.31924,0.48759,1.53944,1.15803   c1.32318,4.04228,0.05702,7.40332-3.56452,9.46378C68.87791,17.46449,68.59087,17.53527,68.30972,17.53527z"/><path d="M46.04964,32.14529c-0.232,0-0.46597-0.04719-0.6901-0.14844c-0.84739-0.38044-1.22684-1.37724-0.84542-2.22463   c0.3729-1.64267,1.65741-3.34432,2.73483-5.05875c0.49742-0.78545,1.53355-1.02237,2.32195-0.99484,1.58172-1.84026,3.14476-2.51463,4.64391   C47.30597,31.77468,46.69058,32.14529,46.04964,32.14529z"/><path d="M63.22541,33.85677c-0.88081,0-1.62006-0.6842-1.67904-1.57582c-0.09437-1.48735-0.37552-3.05629-0.85525-4.79726   c-0.24576-0.89654,0.28115-1.82355,1.17769-2.07029c0.90047-0.2438,1.82257,0.28017,2.07029,1.17572   c0.54068,1.96511,0.85722,3.75523,0.96928,5.47556c0.05898,0.928-0.64487,1.7282-1.57287,1.78816   C63.29815,33.8548,63.26276,33.85677,63.22541,33.85677z"/><path d="M45.36544,100c-3.72771,0-6.64735-2.11748-6.64735-4.82282c0-2.70338,2.91965-4.82085,6.64735-4.82085   s6.64735,2.11748,6.64735,4.82085C52.01279,97.88252,49.09314,100,45.36544,100z M45.36544,93.72227   c-2.00345,0-3.28141,0.95552-3.28141,1.4549c0,0.49939,1.27796,1.45688,3.28141,1.45688c2.00344,0,3.28141-0.95749,3.28141-1.45688   C48.64684,94.6778,47.36888,93.72227,45.36544,93.72227z"/><path d="M49.75965,98.34455c-0.40305,0-0.80806-0.14352-1.1305-0.43647c-0.68813-0.62325-0.74121-1.68887-0.116-2.37701   c0.32047-0.3539,0.67044-0.70583,1.05186-1.05579c-0.95749-0.07471-1.83829-0.26936-2.64243-0.58197   c-0.86705-0.33817-1.29565-1.31335-0.95749-2.18039c0.33817-0.86705,1.32121-1.29369,2.18039-0.95749   c1.93267,0.75498,4.87001,0.40501,8.73141-1.03613c0.82969-0.31261,1.77145,0.0806,2.12928,0.90047   c0.35979,0.81789,0.01769,1.77341-0.77857,2.17646c-3.31287,1.68494-5.74295,3.36398-7.22145,4.99584   C50.67388,98.15974,50.21775,98.34455,49.75965,98.34455z"/><path d="M40.68614,97.88842c-0.00393,0-0.00786,0-0.00983,0c-5.32811-0.03342-6.35047-2.86853-6.53725-3.73557   c-0.37552-1.74982,0.5682-3.57829,2.24528-4.34703c1.66135-0.76284,4.2212-0.52101,6.44288,2.41436   c0.56034,0.74122,0.41484,1.79701-0.32637,2.35931c-0.22807,0.17301-0.48759,0.27918-0.75105,0.32047   c0.38142,0.31064,0.62325,0.78643,0.61932,1.31532C42.36322,97.1413,41.6102,97.88842,40.68614,97.88842z M38.10663,92.80214   c-0.1219,0-0.23003,0.0236-0.31851,0.06292c-0.24576,0.11403-0.40305,0.36765-0.35586,0.57999   c0.17302-0.16515-0.24773-0.26346   C39.32364,93.17177,38.59422,92.80214,38.10663,92.80214z"/><path d="M45.36544,93.72227c-0.92996,0-1.68298-0.75301-1.68298-1.68298v-2.39667c0-0.92996,0.75301-1.68297,1.68298-1.68297   s1.68297,0.75301,1.68297,1.68297v2.39667C47.04841,92.96926,46.2954,93.72227,45.36544,93.72227z"/><path d="M62.37212,91.49666c-0.61932,0-1.20128-0.3421-1.49423-0.90833c-0.35586-0.6842-0.19857-1.52176,0.37749-2.0349   c2.37897-2.11158,2.35931-2.92554,2.35931-2.93341l0,0c-0.01376,0-0.6783-0.97124-6.29543-1.26026   c-9.68496-0.42271-15.66581-2.35145-18.80762-6.06736c-2.22561-2.63456-3.03368-6.1401-2.46548-10.71519   c0.11403-0.92406,0.96928-1.57091,1.87762-1.46474c0.92406,0.11404,1.57877,0.95552,1.46474,1.87762   c-0.4522,3.64317,0.08651,6.22465,1.69477,8.12782c2.45761,2.90784,7.82111,4.50431,16.39523,4.87984   c5.77244,0.29491,8.55446,1.35267,9.32124,3.53699c0.24969,0.71369,0.23003,1.42738,0.03342,2.11945   c1.95232-0.86311,2.51856-1.63776,2.65816-2.11945c0.28115-0.96928-0.62719-2.58737-2.55592-4.55544   c-4.11306-4.23495-0.87098,0.11797-1.84026,0.98895-2.16467   c0.87294-0.33031,1.84026,0.116,2.16467,0.98894c1.12657,3.01795,4.04032,6.16763,7.7346,9.97202   c2.93537,2.99435,4.04425,5.56404,3.37971,7.84667c-0.78447,2.70534-3.85944,4.54953-9.96808,5.98084   C62.62771,91.48289,62.49992,91.49666,62.37212,91.49666z"/></g><text x="0" y="115" fill="#000000" font-size="5px" font-weight="bold" font-family="'Helvetica Neue', Helvetica, Arial-Unicode, Arial, Sans-serif">Created by Grégory Montigny</text><text x="0" y="120" fill="#000000" font-size="5px" font-weight="bold" font-family="'Helvetica Neue', Helvetica, Arial-Unicode, Arial, Sans-serif">from the Noun Project</text></svg>