<svg xmlns="http://www.w3.org/2000/svg" xmlns:xlink="http://www.w3.org/1999/xlink" version="1.1" x="0px" y="0px" viewBox="0 0 24 30" enable-background="new 0 0 24 24" xml:space="preserve"><g><path d="M1.945,6.963c0.05,0.184,0.2,0.315,0.413,0.294c0.227-0.015,2.235-0.182,2.83-1.293C5.41,5.549,5.527,5.128,5.63,4.756   c0.104-0.37,0.21-0.753,0.36-0.794c0.248-0.068,0.505-0.04,0.688,0.001C6.406,5.682,6.512,8.169,7.623,9.277   c0.541,1.486,1.516,2.646,2.82,3.354c0.37,0.207,0.783,0.378,1.229,0.509l0.131,0.039c0.037,0.011,0.076,0.017,0.114,0.017   c0.036,0,0.073-0.005,0.108-0.015l0.13-0.036c0.527-0.148,1.036-0.378,1.513-0.685c1.026-0.666,1.838-1.676,2.353-2.928   c1.378-0.918,1.466-4.076,1.242-5.559c0.185-0.045,0.459-0.083,0.725-0.009c0.149,0.041,0.255,0.422,0.358,0.792   c0.104,0.372,0.222,0.794,0.444,1.209c0.599,1.111,2.604,1.278,2.83,1.293c0.204,0.017,0.384-0.099,0.434-0.283   s-0.017-0.366-0.188-0.451c-0.003-0.001-0.212-0.173-0.525-0.935c-0.093-0.224-0.158-0.65-0.227-1.101   c-0.215-1.406-0.51-3.331-2.14-3.768c-1.385-0.37-2.397,0.17-2.929,0.688c-0.146-0.141-0.306-0.267-0.479-0.38   c-2.113-1.381-5.392-1.066-7.215,0.02C8.187,1.147,8.036,1.258,7.896,1.38C7.437,0.947,6.473,0.325,5,0.719   C3.372,1.157,3.078,3.083,2.863,4.49C2.794,4.94,2.729,5.365,2.637,5.589C2.338,6.308,2.136,6.502,2.148,6.502   C1.98,6.588,1.895,6.78,1.945,6.963z M13.233,11.787c-0.408,0.263-0.844,0.46-1.295,0.587l-0.019,0.005l-0.021-0.006   c-0.39-0.114-0.748-0.263-1.069-0.442c-1.063-0.577-1.873-1.5-2.36-2.682c0.604-1.33,0.789-2.589,0.838-3.415   c1.512,0.188,3.275,0.197,5.159,0.025c0.05,0.8,0.23,2.027,0.806,3.317c0.005,0.011,0.011,0.022,0.017,0.032   C14.836,10.317,14.127,11.208,13.233,11.787z M18.767,1.492c1.125,0.302,1.364,1.862,1.556,3.117   c0.08,0.522,0.148,0.973,0.278,1.286c0.064,0.156,0.126,0.293,0.186,0.416c-0.526-0.132-1.097-0.361-1.292-0.725   c-0.182-0.337-0.282-0.697-0.379-1.045c-0.163-0.583-0.331-1.187-0.915-1.348c-0.183-0.051-0.363-0.07-0.532-0.07   c-0.225,0-0.429,0.034-0.591,0.073c-0.139-0.446-0.312-0.83-0.522-1.16C16.839,1.735,17.564,1.17,18.767,1.492z M8.763,1.735   c1.62-0.965,4.566-1.212,6.366-0.037c0.612,0.399,1.017,1.049,1.273,2.047c0.27,1.013,0.229,3.754-0.522,4.816   c-0.527-1.313-0.622-2.521-0.63-3.147c-0.002-0.113-0.051-0.219-0.135-0.294c-0.073-0.065-0.168-0.101-0.266-0.101   c-0.014,0-0.028,0-0.042,0.002c-2.164,0.228-4.179,0.215-5.824-0.04C8.868,4.963,8.751,4.995,8.663,5.071   c-0.088,0.076-0.14,0.186-0.141,0.302C8.518,5.99,8.433,7.138,7.951,8.412C7.082,7.04,7.317,3.873,7.791,2.893   C8.027,2.354,8.328,1.996,8.763,1.735z M3.376,5.895c0.129-0.313,0.197-0.763,0.277-1.284c0.191-1.255,0.43-2.817,1.553-3.118   c0.259-0.069,0.494-0.099,0.709-0.099c0.722,0,1.197,0.332,1.458,0.591c-0.115,0.174-0.218,0.365-0.31,0.574   C6.984,2.724,6.91,2.935,6.842,3.181c-0.283-0.062-0.672-0.1-1.065,0.01C5.191,3.353,5.023,3.957,4.86,4.542   C4.763,4.889,4.664,5.249,4.483,5.585C4.288,5.949,3.717,6.178,3.19,6.31C3.25,6.188,3.312,6.051,3.376,5.895z"/><path d="M17.925,13.544l-0.544-0.16c-1.01-0.299-1.735-0.515-2.821-0.498c-0.213,0.003-0.386,0.174-0.393,0.387   c-0.064,1.993-1.413,5.627-2.279,5.626c-0.002,0-0.003,0-0.004,0c-0.851-0.01-2.213-3.604-2.324-5.636   c-0.012-0.209-0.183-0.375-0.393-0.378c-1.082-0.027-1.809,0.197-2.814,0.496l-0.55,0.162c-0.113,0.033-0.207,0.115-0.255,0.224   c-0.949,2.164-1.462,4.731-1.523,7.631c-0.003,0.142,0.07,0.275,0.191,0.349c0.585,0.359,1.191,0.674,1.805,0.938   c0.118,0.052,0.254,0.042,0.364-0.024s0.182-0.182,0.192-0.31l0.011-0.131l0.16,0.58c0.035,0.126,0.13,0.228,0.254,0.271   c1.565,0.546,3.21,0.819,4.855,0.819c1.652,0,3.306-0.275,4.879-0.826c0.124-0.043,0.219-0.145,0.254-0.271l0.157-0.574   l0.012,0.131c0.011,0.128,0.083,0.244,0.193,0.31c0.11,0.066,0.246,0.075,0.364,0.024c0.618-0.268,1.222-0.583,1.794-0.937   c0.121-0.074,0.192-0.207,0.19-0.348c-0.059-2.885-0.57-5.453-1.521-7.631C18.133,13.659,18.04,13.576,17.925,13.544z    M17.909,21.716l-0.153-1.797c-0.017-0.193-0.169-0.347-0.361-0.365c-0.21-0.019-0.372,0.106-0.423,0.292l-0.695,2.531   c-2.854,0.95-5.965,0.951-8.813,0.006l-0.7-2.538c-0.052-0.186-0.22-0.311-0.423-0.292c-0.193,0.018-0.346,0.172-0.361,0.365   l-0.151,1.8c-0.336-0.163-0.67-0.342-0.996-0.535c0.078-2.624,0.54-4.952,1.376-6.926l0.373-0.109   c0.848-0.252,1.444-0.429,2.218-0.459c0.234,1.827,1.45,5.991,3.076,6.01c0.004,0,0.008,0,0.013,0c1.689,0,2.85-4.167,3.05-6.01   c0.771,0.032,1.369,0.209,2.216,0.46l0.368,0.108c0.837,1.988,1.3,4.315,1.375,6.926C18.575,21.375,18.245,21.553,17.909,21.716z"/></g><text x="0" y="39" fill="#000000" font-size="5px" font-weight="bold" font-family="'Helvetica Neue', Helvetica, Arial-Unicode, Arial, Sans-serif">Created by Atif Arshad</text><text x="0" y="44" fill="#000000" font-size="5px" font-weight="bold" font-family="'Helvetica Neue', Helvetica, Arial-Unicode, Arial, Sans-serif">from the Noun Project</text></svg>