<svg xmlns="http://www.w3.org/2000/svg" viewBox="0 0 800 1000" version="1.1" x="0px" y="0px"><g><path fill="#000000" opacity="1.00" d=" M 392.70 43.68 C 394.42 41.76 396.08 39.14 398.96 39.06 C 401.69 38.55 404.47 39.60 406.11 41.86 C 425.66 64.84 445.30 87.75 464.82 110.76 C 468.84 108.90 473.16 107.89 477.39 106.64 C 506.35 98.17 535.31 89.70 564.26 81.23 C 568.65 79.23 573.97 83.92 572.47 88.51 C 562.67 122.69 552.94 156.90 542.91 191.02 C 547.87 194.37 551.71 199.77 551.72 205.93 C 552.09 210.79 549.83 215.30 546.93 219.02 C 573.88 246.69 593.04 282.07 600.31 320.10 C 602.72 333.58 604.15 347.30 603.87 361.01 C 603.87 401.36 603.88 441.71 603.87 482.06 C 603.97 491.70 603.47 501.48 605.75 510.93 C 608.79 527.31 616.86 542.59 628.43 554.54 C 638.15 567.44 645.48 582.66 646.86 598.93 C 648.67 616.07 645.52 633.83 636.84 648.81 C 627.44 665.98 611.58 679.43 593.37 686.49 C 580.70 691.62 566.69 692.48 553.19 691.43 C 547.65 691.05 541.18 687.92 536.41 692.28 C 525.32 702.34 511.75 709.82 497.06 712.97 C 489.78 714.49 482.32 714.60 474.93 714.89 C 470.78 715.03 467.56 718.92 467.80 722.99 C 468.34 727.37 472.01 730.34 475.29 732.86 C 486.06 741.10 499.41 745.78 512.92 746.54 C 527.62 746.65 542.33 746.49 557.03 746.60 C 560.76 746.54 563.94 750.36 563.46 754.03 C 563.28 757.26 560.38 760.25 557.08 760.23 C 548.72 760.36 540.36 760.21 532.01 760.27 C 520.64 760.14 509.12 760.93 497.91 758.52 C 480.32 754.36 464.09 744.28 452.90 730.04 C 441.86 716.52 435.92 699.31 434.84 682.00 C 434.85 669.65 434.86 657.31 434.85 644.97 C 434.79 641.65 434.25 637.74 431.22 635.80 C 427.22 633.25 422.35 634.72 417.98 635.02 C 402.97 636.79 387.82 635.85 372.89 633.81 C 367.85 633.41 364.15 638.27 364.19 642.99 C 364.07 654.67 364.19 666.35 364.16 678.03 C 363.17 692.48 359.06 706.89 351.09 719.09 C 337.37 740.76 312.80 755.58 287.01 756.19 C 272.34 756.38 257.67 756.21 243.00 756.28 C 239.32 756.74 235.71 753.69 235.54 750.00 C 235.02 745.93 238.87 742.04 242.95 742.56 C 255.29 742.57 267.63 742.56 279.97 742.58 C 296.05 743.16 312.39 737.99 324.95 727.88 C 326.49 726.53 327.98 724.95 328.63 722.97 C 330.30 718.83 327.31 713.57 322.81 713.11 C 315.88 712.20 308.80 712.29 301.97 710.55 C 289.06 707.25 276.81 701.03 266.86 692.13 C 264.17 689.72 260.80 687.18 256.95 688.01 C 238.88 691.47 219.46 690.36 202.67 682.40 C 185.03 674.20 170.06 659.94 161.80 642.25 C 154.03 626.93 152.24 609.11 154.71 592.26 C 156.66 579.63 162.05 567.76 169.22 557.26 C 171.64 552.82 175.67 549.64 178.58 545.57 C 190.41 530.77 196.60 511.87 197.07 493.03 C 197.18 446.00 197.11 398.98 197.11 351.95 C 197.93 327.18 202.86 302.45 212.83 279.70 C 222.26 257.14 236.33 236.77 253.05 219.01 C 249.61 214.50 247.60 208.61 249.12 202.96 C 250.15 198.05 253.60 194.13 257.59 191.31 C 247.68 157.74 238.17 124.05 228.36 90.45 C 227.89 88.11 227.36 85.19 229.27 83.32 C 230.96 81.27 233.87 80.78 236.30 81.67 C 263.32 89.59 290.35 97.49 317.38 105.39 C 323.37 107.25 329.52 108.63 335.36 110.97 C 354.46 88.53 373.64 66.16 392.70 43.68 M 329.35 136.50 C 326.90 139.91 322.29 139.46 318.79 138.22 C 295.38 131.14 271.91 124.30 248.52 117.17 C 255.54 141.01 262.34 164.91 269.26 188.78 C 356.55 188.81 443.84 188.78 531.13 188.79 C 538.08 164.94 544.82 141.03 551.89 117.22 C 528.10 124.34 504.30 131.41 480.51 138.53 C 477.40 139.56 473.46 139.59 471.30 136.73 C 447.54 108.99 423.87 81.16 400.16 53.37 C 376.66 81.16 352.93 108.77 329.35 136.50 M 242.42 95.89 C 243.18 98.43 243.93 100.97 244.67 103.52 C 270.41 111.30 296.20 118.92 321.97 126.63 C 323.67 124.63 325.40 122.66 327.17 120.72 C 298.91 112.46 270.63 104.29 242.42 95.89 M 473.02 120.48 C 474.86 122.54 476.69 124.61 478.53 126.68 C 504.18 118.81 529.96 111.39 555.61 103.53 C 556.37 100.84 557.18 98.17 558.05 95.51 C 529.73 103.91 501.32 112.01 473.02 120.48 M 265.22 201.32 C 261.92 201.91 259.68 205.82 260.95 208.95 C 261.72 210.98 263.67 212.77 265.94 212.77 C 353.64 212.79 441.33 212.78 529.03 212.77 C 532.39 212.57 536.78 213.08 538.83 209.75 C 541.41 206.22 538.45 200.66 534.12 200.76 C 446.75 200.79 359.38 200.78 272.01 200.77 C 269.73 200.80 267.45 200.88 265.22 201.32 M 267.15 224.99 C 256.80 234.14 248.35 245.29 240.77 256.78 C 224.95 280.42 215.64 308.05 212.11 336.18 C 210.29 350.71 210.77 365.37 210.71 379.97 C 210.72 413.96 210.69 447.95 210.72 481.94 C 211.07 493.65 210.76 505.52 207.87 516.93 C 203.62 533.24 195.31 548.52 183.66 560.72 C 173.19 574.07 167.01 590.97 167.40 608.02 C 168.02 622.72 172.98 637.28 182.02 648.95 C 195.13 666.09 216.55 676.24 238.08 676.13 C 241.76 676.17 245.30 673.67 245.97 669.96 C 247.49 665.89 243.74 662.13 244.70 658.05 C 245.79 655.11 248.75 652.53 252.06 653.08 C 255.20 653.12 257.30 655.98 258.43 658.61 C 267.60 679.22 287.77 694.22 309.94 697.87 C 321.15 700.07 332.80 698.87 343.66 695.56 C 346.90 694.38 348.24 690.85 348.78 687.72 C 349.62 682.87 350.53 677.99 350.47 673.05 C 350.43 661.03 350.44 649.01 350.47 637.00 C 350.40 634.10 350.35 630.91 348.50 628.52 C 347.01 626.47 344.54 625.60 342.30 624.65 C 327.51 618.47 313.68 610.00 301.52 599.53 C 267.07 570.44 246.56 525.17 248.48 480.00 C 248.33 445.31 248.42 410.61 248.42 375.92 C 248.30 371.12 252.89 366.07 257.94 367.50 C 279.22 371.13 301.21 371.11 322.30 366.27 C 346.57 360.85 369.48 349.51 388.52 333.52 C 406.15 319.04 420.04 300.29 429.89 279.78 C 432.83 274.15 441.26 276.13 444.46 280.45 C 447.98 286.99 450.79 293.92 454.77 300.22 C 474.73 333.40 507.32 358.87 544.58 369.63 C 548.37 370.66 552.77 373.54 552.59 377.96 C 552.57 412.95 552.67 447.95 552.52 482.93 C 553.21 508.24 546.66 533.49 534.74 555.76 C 518.41 586.62 491.03 611.45 458.72 624.69 C 455.81 625.91 452.48 626.82 450.49 629.46 C 448.77 631.56 448.61 634.43 448.54 637.04 C 448.55 650.36 448.58 663.68 448.53 677.00 C 448.47 681.71 449.24 686.40 450.15 691.01 C 450.74 694.35 453.22 697.68 456.74 698.17 C 464.50 699.19 472.17 701.19 480.05 701.05 C 491.09 700.59 502.15 698.01 511.95 692.83 C 525.23 685.72 536.47 674.46 542.58 660.60 C 543.69 657.97 545.80 655.12 548.95 655.09 C 553.20 654.42 557.49 658.98 556.26 663.19 C 555.52 666.32 553.74 669.55 555.28 672.76 C 556.24 676.54 560.29 678.37 563.94 678.16 C 579.39 677.75 594.96 672.76 607.01 662.91 C 624.13 649.91 633.78 628.34 633.61 607.02 C 633.11 588.87 625.61 570.98 613.04 557.90 C 599.59 541.66 591.21 521.07 590.41 499.94 C 589.88 492.29 590.40 484.63 590.29 476.98 C 590.29 442.98 590.29 408.98 590.29 374.97 C 590.73 353.80 589.69 332.41 584.06 311.90 C 576.01 279.77 558.67 250.11 535.10 226.91 C 533.97 225.84 532.80 224.47 531.07 224.75 C 444.03 224.77 356.99 224.77 269.95 224.75 C 269.25 224.81 267.85 224.93 267.15 224.99 M 433.42 304.61 C 431.14 305.48 429.98 307.78 428.63 309.64 C 399.97 351.54 351.95 380.42 300.97 383.27 C 292.70 383.97 284.36 384.25 276.08 383.42 C 272.22 383.06 267.70 382.79 264.63 385.63 C 262.30 388.12 262.11 391.78 262.09 395.01 C 262.16 415.34 262.02 435.68 262.24 456.01 C 262.39 472.00 261.32 488.12 263.81 503.99 C 264.92 512.37 267.32 520.50 269.63 528.61 C 280.64 562.25 305.58 590.85 337.05 606.92 C 372.50 625.37 416.04 627.23 452.99 612.04 C 481.61 600.51 505.99 578.92 521.04 552.00 C 532.59 531.67 538.17 508.26 538.80 484.98 C 538.76 453.65 538.97 422.33 538.89 391.00 C 538.79 388.54 538.54 385.95 537.22 383.81 C 535.70 381.45 532.85 380.63 530.38 379.66 C 494.65 366.41 463.47 341.09 443.59 308.54 C 441.81 304.87 437.23 302.75 433.42 304.61 Z"/><path fill="#000000" opacity="1.00" d=" M 397.43 125.65 C 407.03 123.66 417.22 130.46 419.18 140.03 C 421.54 149.41 415.12 159.63 405.85 161.99 C 396.30 164.80 385.12 158.89 382.56 149.17 C 379.22 138.91 386.84 127.18 397.43 125.65 M 399.36 137.53 C 395.04 138.13 392.21 143.56 394.70 147.31 C 397.25 151.86 404.76 151.73 406.96 146.91 C 409.64 142.22 404.48 136.02 399.36 137.53 Z"/></g><text x="0" y="815" fill="#000000" font-size="5px" font-weight="bold" font-family="'Helvetica Neue', Helvetica, Arial-Unicode, Arial, Sans-serif">Created by LSE Designs</text><text x="0" y="820" fill="#000000" font-size="5px" font-weight="bold" font-family="'Helvetica Neue', Helvetica, Arial-Unicode, Arial, Sans-serif">from the Noun Project</text></svg>