<svg xmlns="http://www.w3.org/2000/svg" xmlns:xlink="http://www.w3.org/1999/xlink" xml:space="preserve" version="1.1" style="shape-rendering:geometricPrecision;text-rendering:geometricPrecision;image-rendering:optimizeQuality;" viewBox="0 0 224 273.75" x="0px" y="0px" fill-rule="evenodd" clip-rule="evenodd"><defs><style type="text/css">
   
    .fil0 {fill:black}
    .fil1 {fill:black;fill-rule:nonzero}
   
  </style></defs><g><polygon class="fil0" points="111,112 119,88 104,88 "/><circle class="fil0" cx="97" cy="77" r="7"/><circle class="fil0" cx="126" cy="77" r="7"/><path class="fil1" d="M146 108c5,3 10,8 14,13l26 -19 -11 -21 8 -4 9 17 12 -33 9 3 -12 32 21 -4 2 10 -28 4 -31 23c5,9 7,18 7,29 0,34 -27,61 -61,61 -33,0 -61,-27 -61,-61 0,-11 3,-21 8,-29l-30 -23 -28 -4 2 -10 20 4 -11 -32 9 -3 12 33 9 -17 8 4 -11 21 25 19c4,-5 9,-10 14,-13 -12,-18 -10,-42 6,-56l-9 0 0 -5 15 0c0,-24 45,-24 45,0l15 0 0 5 -9 0c16,14 18,38 6,56zm-23 -56l-23 0c-26,11 -28,42 -9,58 -19,11 -31,25 -31,48 0,28 23,52 51,52 29,0 52,-24 52,-52 0,-23 -12,-37 -31,-48 18,-18 17,-46 -9,-58z"/><circle class="fil0" cx="112" cy="137" r="7"/><circle class="fil0" cx="112" cy="160" r="7"/><circle class="fil0" cx="112" cy="182" r="7"/><circle class="fil0" cx="59" cy="27" r="7"/><circle class="fil0" cx="57" cy="58" r="7"/><circle class="fil0" cx="24" cy="28" r="7"/><circle class="fil0" cx="82" cy="7" r="7"/><circle class="fil0" cx="164" cy="27" r="7"/><circle class="fil0" cx="166" cy="58" r="7"/><circle class="fil0" cx="200" cy="28" r="7"/><circle class="fil0" cx="142" cy="7" r="7"/></g><text x="0" y="234" fill="#000000" font-size="5px" font-weight="bold" font-family="'Helvetica Neue', Helvetica, Arial-Unicode, Arial, Sans-serif">Created by kareemov1000</text><text x="0" y="239" fill="#000000" font-size="5px" font-weight="bold" font-family="'Helvetica Neue', Helvetica, Arial-Unicode, Arial, Sans-serif">from the Noun Project</text></svg>